<mxfile host="app.diagrams.net" modified="2023-10-19T20:51:32.431Z" agent="Mozilla/5.0 (Windows NT 10.0; Win64; x64) AppleWebKit/537.36 (KHTML, like Gecko) Chrome/118.0.0.0 Safari/537.36" etag="-7m39d9PvTdvWSAhmrkO" version="21.8.1" type="github">
  <diagram id="C5RBs43oDa-KdzZeNtuy" name="Page-1">
    <mxGraphModel dx="1034" dy="702" grid="1" gridSize="10" guides="1" tooltips="1" connect="1" arrows="1" fold="1" page="1" pageScale="1" pageWidth="1100" pageHeight="2000" math="0" shadow="0">
      <root>
        <mxCell id="WIyWlLk6GJQsqaUBKTNV-0" />
        <mxCell id="WIyWlLk6GJQsqaUBKTNV-1" parent="WIyWlLk6GJQsqaUBKTNV-0" />
        <mxCell id="2aWyeMzdCx-4pzrAcmwg-5" value="Trazabilidad de la cuenta medica" style="swimlane;childLayout=stackLayout;resizeParent=1;resizeParentMax=0;horizontal=1;startSize=20;horizontalStack=0;html=1;" vertex="1" parent="WIyWlLk6GJQsqaUBKTNV-1">
          <mxGeometry x="10" y="10" width="1070" height="1930" as="geometry" />
        </mxCell>
        <mxCell id="2aWyeMzdCx-4pzrAcmwg-6" value="Revisor de facturas" style="swimlane;startSize=20;horizontal=0;html=1;" vertex="1" parent="2aWyeMzdCx-4pzrAcmwg-5">
          <mxGeometry y="20" width="1070" height="1620" as="geometry" />
        </mxCell>
        <mxCell id="2aWyeMzdCx-4pzrAcmwg-0" value="Inicio" style="strokeWidth=2;html=1;shape=mxgraph.flowchart.start_2;whiteSpace=wrap;" vertex="1" parent="2aWyeMzdCx-4pzrAcmwg-6">
          <mxGeometry x="555" y="10" width="50" height="50" as="geometry" />
        </mxCell>
        <mxCell id="2aWyeMzdCx-4pzrAcmwg-11" value="" style="edgeStyle=orthogonalEdgeStyle;rounded=0;orthogonalLoop=1;jettySize=auto;html=1;" edge="1" parent="2aWyeMzdCx-4pzrAcmwg-6" source="2aWyeMzdCx-4pzrAcmwg-1" target="2aWyeMzdCx-4pzrAcmwg-10">
          <mxGeometry relative="1" as="geometry" />
        </mxCell>
        <mxCell id="2aWyeMzdCx-4pzrAcmwg-1" value="Recepcionar archivos RIPS, soportes y facturas" style="rounded=1;whiteSpace=wrap;html=1;absoluteArcSize=1;arcSize=14;strokeWidth=2;" vertex="1" parent="2aWyeMzdCx-4pzrAcmwg-6">
          <mxGeometry x="520" y="160" width="120" height="60" as="geometry" />
        </mxCell>
        <mxCell id="2aWyeMzdCx-4pzrAcmwg-48" style="edgeStyle=orthogonalEdgeStyle;rounded=0;orthogonalLoop=1;jettySize=auto;html=1;" edge="1" parent="2aWyeMzdCx-4pzrAcmwg-6" source="2aWyeMzdCx-4pzrAcmwg-2" target="2aWyeMzdCx-4pzrAcmwg-1">
          <mxGeometry relative="1" as="geometry" />
        </mxCell>
        <mxCell id="2aWyeMzdCx-4pzrAcmwg-2" value="Rips, soportes y facturas" style="strokeWidth=2;html=1;shape=mxgraph.flowchart.multi-document;whiteSpace=wrap;" vertex="1" parent="2aWyeMzdCx-4pzrAcmwg-6">
          <mxGeometry x="520" y="80" width="120" height="60" as="geometry" />
        </mxCell>
        <mxCell id="2aWyeMzdCx-4pzrAcmwg-14" value="" style="edgeStyle=orthogonalEdgeStyle;rounded=0;orthogonalLoop=1;jettySize=auto;html=1;" edge="1" parent="2aWyeMzdCx-4pzrAcmwg-6" source="2aWyeMzdCx-4pzrAcmwg-10" target="2aWyeMzdCx-4pzrAcmwg-13">
          <mxGeometry relative="1" as="geometry" />
        </mxCell>
        <mxCell id="2aWyeMzdCx-4pzrAcmwg-10" value="Verificar la información inicial de los archivos RIPS" style="rounded=1;whiteSpace=wrap;html=1;absoluteArcSize=1;arcSize=14;strokeWidth=2;" vertex="1" parent="2aWyeMzdCx-4pzrAcmwg-6">
          <mxGeometry x="520" y="240" width="120" height="60" as="geometry" />
        </mxCell>
        <mxCell id="2aWyeMzdCx-4pzrAcmwg-17" value="" style="edgeStyle=orthogonalEdgeStyle;rounded=0;orthogonalLoop=1;jettySize=auto;html=1;" edge="1" parent="2aWyeMzdCx-4pzrAcmwg-6" source="2aWyeMzdCx-4pzrAcmwg-13" target="2aWyeMzdCx-4pzrAcmwg-16">
          <mxGeometry relative="1" as="geometry" />
        </mxCell>
        <mxCell id="2aWyeMzdCx-4pzrAcmwg-13" value="Cargar archivos RIPS en OASIS modulo erip" style="rounded=1;whiteSpace=wrap;html=1;absoluteArcSize=1;arcSize=14;strokeWidth=2;" vertex="1" parent="2aWyeMzdCx-4pzrAcmwg-6">
          <mxGeometry x="520" y="330" width="120" height="60" as="geometry" />
        </mxCell>
        <mxCell id="2aWyeMzdCx-4pzrAcmwg-16" value="Validar estructura y reglas de negocio de RIPS" style="rounded=1;whiteSpace=wrap;html=1;absoluteArcSize=1;arcSize=14;strokeWidth=2;" vertex="1" parent="2aWyeMzdCx-4pzrAcmwg-6">
          <mxGeometry x="520" y="420" width="120" height="60" as="geometry" />
        </mxCell>
        <mxCell id="2aWyeMzdCx-4pzrAcmwg-28" value="Si" style="edgeStyle=orthogonalEdgeStyle;rounded=0;orthogonalLoop=1;jettySize=auto;html=1;entryX=0.5;entryY=0;entryDx=0;entryDy=0;entryPerimeter=0;" edge="1" parent="2aWyeMzdCx-4pzrAcmwg-6" source="2aWyeMzdCx-4pzrAcmwg-23" target="2aWyeMzdCx-4pzrAcmwg-29">
          <mxGeometry relative="1" as="geometry">
            <mxPoint x="580" y="770" as="targetPoint" />
          </mxGeometry>
        </mxCell>
        <mxCell id="2aWyeMzdCx-4pzrAcmwg-39" value="No" style="edgeStyle=orthogonalEdgeStyle;rounded=0;orthogonalLoop=1;jettySize=auto;html=1;" edge="1" parent="2aWyeMzdCx-4pzrAcmwg-6" source="2aWyeMzdCx-4pzrAcmwg-23" target="2aWyeMzdCx-4pzrAcmwg-38">
          <mxGeometry relative="1" as="geometry" />
        </mxCell>
        <mxCell id="2aWyeMzdCx-4pzrAcmwg-23" value="¿Cumple las validaciones?" style="strokeWidth=2;html=1;shape=mxgraph.flowchart.decision;whiteSpace=wrap;" vertex="1" parent="2aWyeMzdCx-4pzrAcmwg-6">
          <mxGeometry x="530" y="510" width="100" height="100" as="geometry" />
        </mxCell>
        <mxCell id="2aWyeMzdCx-4pzrAcmwg-24" style="edgeStyle=orthogonalEdgeStyle;rounded=0;orthogonalLoop=1;jettySize=auto;html=1;entryX=0.5;entryY=0;entryDx=0;entryDy=0;entryPerimeter=0;" edge="1" parent="2aWyeMzdCx-4pzrAcmwg-6" source="2aWyeMzdCx-4pzrAcmwg-16" target="2aWyeMzdCx-4pzrAcmwg-23">
          <mxGeometry relative="1" as="geometry" />
        </mxCell>
        <mxCell id="2aWyeMzdCx-4pzrAcmwg-32" value="Hospitalario" style="edgeStyle=orthogonalEdgeStyle;rounded=0;orthogonalLoop=1;jettySize=auto;html=1;" edge="1" parent="2aWyeMzdCx-4pzrAcmwg-6" source="2aWyeMzdCx-4pzrAcmwg-29" target="2aWyeMzdCx-4pzrAcmwg-81">
          <mxGeometry relative="1" as="geometry">
            <mxPoint x="580" y="790" as="targetPoint" />
          </mxGeometry>
        </mxCell>
        <mxCell id="2aWyeMzdCx-4pzrAcmwg-35" value="Ambulatorio" style="edgeStyle=orthogonalEdgeStyle;rounded=0;orthogonalLoop=1;jettySize=auto;html=1;" edge="1" parent="2aWyeMzdCx-4pzrAcmwg-6" source="2aWyeMzdCx-4pzrAcmwg-29" target="2aWyeMzdCx-4pzrAcmwg-34">
          <mxGeometry x="0.7391" relative="1" as="geometry">
            <mxPoint as="offset" />
          </mxGeometry>
        </mxCell>
        <mxCell id="2aWyeMzdCx-4pzrAcmwg-29" value="¿Ámbito hospitalario o ambulatorio?" style="strokeWidth=2;html=1;shape=mxgraph.flowchart.decision;whiteSpace=wrap;" vertex="1" parent="2aWyeMzdCx-4pzrAcmwg-6">
          <mxGeometry x="530" y="650" width="100" height="100" as="geometry" />
        </mxCell>
        <mxCell id="2aWyeMzdCx-4pzrAcmwg-83" value="No" style="edgeStyle=orthogonalEdgeStyle;rounded=0;orthogonalLoop=1;jettySize=auto;html=1;entryX=1;entryY=0.5;entryDx=0;entryDy=0;" edge="1" parent="2aWyeMzdCx-4pzrAcmwg-6" source="2aWyeMzdCx-4pzrAcmwg-34" target="2aWyeMzdCx-4pzrAcmwg-81">
          <mxGeometry relative="1" as="geometry">
            <mxPoint x="730" y="840" as="targetPoint" />
            <Array as="points">
              <mxPoint x="700" y="850" />
              <mxPoint x="700" y="850" />
            </Array>
          </mxGeometry>
        </mxCell>
        <mxCell id="2aWyeMzdCx-4pzrAcmwg-88" value="Si" style="edgeStyle=orthogonalEdgeStyle;rounded=0;orthogonalLoop=1;jettySize=auto;html=1;" edge="1" parent="2aWyeMzdCx-4pzrAcmwg-6" source="2aWyeMzdCx-4pzrAcmwg-34" target="2aWyeMzdCx-4pzrAcmwg-87">
          <mxGeometry relative="1" as="geometry" />
        </mxCell>
        <mxCell id="2aWyeMzdCx-4pzrAcmwg-34" value="¿Aplica glosa automática?" style="rhombus;whiteSpace=wrap;html=1;strokeWidth=2;" vertex="1" parent="2aWyeMzdCx-4pzrAcmwg-6">
          <mxGeometry x="770" y="805" width="90" height="90" as="geometry" />
        </mxCell>
        <mxCell id="2aWyeMzdCx-4pzrAcmwg-43" style="edgeStyle=orthogonalEdgeStyle;rounded=0;orthogonalLoop=1;jettySize=auto;html=1;" edge="1" parent="2aWyeMzdCx-4pzrAcmwg-6" source="2aWyeMzdCx-4pzrAcmwg-38" target="2aWyeMzdCx-4pzrAcmwg-40">
          <mxGeometry relative="1" as="geometry" />
        </mxCell>
        <mxCell id="2aWyeMzdCx-4pzrAcmwg-38" value="Generar informe de errores" style="rounded=1;whiteSpace=wrap;html=1;absoluteArcSize=1;arcSize=14;strokeWidth=2;" vertex="1" parent="2aWyeMzdCx-4pzrAcmwg-6">
          <mxGeometry x="370" y="530" width="120" height="60" as="geometry" />
        </mxCell>
        <mxCell id="2aWyeMzdCx-4pzrAcmwg-45" style="edgeStyle=orthogonalEdgeStyle;rounded=0;orthogonalLoop=1;jettySize=auto;html=1;" edge="1" parent="2aWyeMzdCx-4pzrAcmwg-6" source="2aWyeMzdCx-4pzrAcmwg-40" target="2aWyeMzdCx-4pzrAcmwg-41">
          <mxGeometry relative="1" as="geometry" />
        </mxCell>
        <mxCell id="2aWyeMzdCx-4pzrAcmwg-40" value="Informe" style="strokeWidth=2;html=1;shape=mxgraph.flowchart.document2;whiteSpace=wrap;size=0.25;" vertex="1" parent="2aWyeMzdCx-4pzrAcmwg-6">
          <mxGeometry x="240" y="530" width="100" height="60" as="geometry" />
        </mxCell>
        <mxCell id="2aWyeMzdCx-4pzrAcmwg-41" value="Notificar errores de validación al prestador" style="rounded=1;whiteSpace=wrap;html=1;absoluteArcSize=1;arcSize=14;strokeWidth=2;" vertex="1" parent="2aWyeMzdCx-4pzrAcmwg-6">
          <mxGeometry x="90" y="530" width="120" height="60" as="geometry" />
        </mxCell>
        <mxCell id="2aWyeMzdCx-4pzrAcmwg-47" style="edgeStyle=orthogonalEdgeStyle;rounded=0;orthogonalLoop=1;jettySize=auto;html=1;entryX=0.5;entryY=0;entryDx=0;entryDy=0;entryPerimeter=0;" edge="1" parent="2aWyeMzdCx-4pzrAcmwg-6" source="2aWyeMzdCx-4pzrAcmwg-0" target="2aWyeMzdCx-4pzrAcmwg-2">
          <mxGeometry relative="1" as="geometry" />
        </mxCell>
        <mxCell id="2aWyeMzdCx-4pzrAcmwg-49" style="edgeStyle=orthogonalEdgeStyle;rounded=0;orthogonalLoop=1;jettySize=auto;html=1;entryX=0;entryY=0.5;entryDx=0;entryDy=0;entryPerimeter=0;" edge="1" parent="2aWyeMzdCx-4pzrAcmwg-6" source="2aWyeMzdCx-4pzrAcmwg-41" target="2aWyeMzdCx-4pzrAcmwg-2">
          <mxGeometry relative="1" as="geometry">
            <Array as="points">
              <mxPoint x="150" y="110" />
            </Array>
          </mxGeometry>
        </mxCell>
        <mxCell id="2aWyeMzdCx-4pzrAcmwg-86" value="" style="edgeStyle=orthogonalEdgeStyle;rounded=0;orthogonalLoop=1;jettySize=auto;html=1;" edge="1" parent="2aWyeMzdCx-4pzrAcmwg-6" source="2aWyeMzdCx-4pzrAcmwg-81" target="2aWyeMzdCx-4pzrAcmwg-85">
          <mxGeometry relative="1" as="geometry" />
        </mxCell>
        <mxCell id="2aWyeMzdCx-4pzrAcmwg-81" value="Generar cuenta medica en efac" style="rounded=1;whiteSpace=wrap;html=1;absoluteArcSize=1;arcSize=14;strokeWidth=2;" vertex="1" parent="2aWyeMzdCx-4pzrAcmwg-6">
          <mxGeometry x="520" y="820" width="120" height="60" as="geometry" />
        </mxCell>
        <mxCell id="2aWyeMzdCx-4pzrAcmwg-95" style="edgeStyle=orthogonalEdgeStyle;rounded=0;orthogonalLoop=1;jettySize=auto;html=1;" edge="1" parent="2aWyeMzdCx-4pzrAcmwg-6" source="2aWyeMzdCx-4pzrAcmwg-85" target="2aWyeMzdCx-4pzrAcmwg-94">
          <mxGeometry relative="1" as="geometry" />
        </mxCell>
        <mxCell id="2aWyeMzdCx-4pzrAcmwg-85" value="Enviar recibido de facturas al prestador" style="rounded=1;whiteSpace=wrap;html=1;absoluteArcSize=1;arcSize=14;strokeWidth=2;" vertex="1" parent="2aWyeMzdCx-4pzrAcmwg-6">
          <mxGeometry x="520" y="930" width="120" height="60" as="geometry" />
        </mxCell>
        <mxCell id="2aWyeMzdCx-4pzrAcmwg-90" style="edgeStyle=orthogonalEdgeStyle;rounded=0;orthogonalLoop=1;jettySize=auto;html=1;" edge="1" parent="2aWyeMzdCx-4pzrAcmwg-6" source="2aWyeMzdCx-4pzrAcmwg-87" target="2aWyeMzdCx-4pzrAcmwg-89">
          <mxGeometry relative="1" as="geometry" />
        </mxCell>
        <mxCell id="2aWyeMzdCx-4pzrAcmwg-91" style="edgeStyle=orthogonalEdgeStyle;rounded=0;orthogonalLoop=1;jettySize=auto;html=1;entryX=1;entryY=0.5;entryDx=0;entryDy=0;" edge="1" parent="2aWyeMzdCx-4pzrAcmwg-6" source="2aWyeMzdCx-4pzrAcmwg-87" target="2aWyeMzdCx-4pzrAcmwg-81">
          <mxGeometry relative="1" as="geometry">
            <Array as="points">
              <mxPoint x="680" y="960" />
              <mxPoint x="680" y="850" />
            </Array>
          </mxGeometry>
        </mxCell>
        <mxCell id="2aWyeMzdCx-4pzrAcmwg-87" value="Generar glosa FD en efac" style="rounded=1;whiteSpace=wrap;html=1;absoluteArcSize=1;arcSize=14;strokeWidth=2;" vertex="1" parent="2aWyeMzdCx-4pzrAcmwg-6">
          <mxGeometry x="755" y="930" width="120" height="60" as="geometry" />
        </mxCell>
        <mxCell id="2aWyeMzdCx-4pzrAcmwg-89" value="Insertar glosas en tabla de auditoria" style="strokeWidth=2;html=1;shape=mxgraph.flowchart.database;whiteSpace=wrap;" vertex="1" parent="2aWyeMzdCx-4pzrAcmwg-6">
          <mxGeometry x="930" y="920" width="70" height="80" as="geometry" />
        </mxCell>
        <mxCell id="2aWyeMzdCx-4pzrAcmwg-94" value="Enviar recibido de facturas al prestador" style="rounded=1;whiteSpace=wrap;html=1;absoluteArcSize=1;arcSize=14;strokeWidth=2;" vertex="1" parent="2aWyeMzdCx-4pzrAcmwg-6">
          <mxGeometry x="520" y="1020" width="120" height="60" as="geometry" />
        </mxCell>
        <mxCell id="2aWyeMzdCx-4pzrAcmwg-7" value="Lane 2" style="swimlane;startSize=20;horizontal=0;html=1;" vertex="1" parent="2aWyeMzdCx-4pzrAcmwg-5">
          <mxGeometry y="1640" width="1070" height="170" as="geometry" />
        </mxCell>
        <mxCell id="2aWyeMzdCx-4pzrAcmwg-8" value="Lane 3" style="swimlane;startSize=20;horizontal=0;html=1;" vertex="1" parent="2aWyeMzdCx-4pzrAcmwg-5">
          <mxGeometry y="1810" width="1070" height="120" as="geometry" />
        </mxCell>
      </root>
    </mxGraphModel>
  </diagram>
</mxfile>
